<svg xmlns="http://www.w3.org/2000/svg" xmlns:xlink="http://www.w3.org/1999/xlink" width="400" zoomAndPan="magnify" viewBox="0 0 300 149.999998" height="200" preserveAspectRatio="xMidYMid meet" version="1.0"><defs><g/><clipPath id="199f9c12cc"><path d="M 125 46 L 175 46 L 175 109.605469 L 125 109.605469 Z M 125 46 " clip-rule="nonzero"/></clipPath><clipPath id="fe8a699c19"><path d="M 119.941406 42.644531 L 179.941406 42.644531 L 179.941406 96.332031 L 119.941406 96.332031 Z M 119.941406 42.644531 " clip-rule="nonzero"/></clipPath></defs><g clip-path="url(#199f9c12cc)"><path fill="#3e75a3" d="M 174.363281 60.5 L 150.386719 109.585938 L 125.566406 60.980469 C 125.585938 60.972656 125.621094 60.976562 125.621094 60.957031 C 125.621094 42.644531 174.359375 42.128906 174.359375 60.496094 C 174.359375 60.496094 174.359375 60.496094 174.363281 60.5 " fill-opacity="1" fill-rule="nonzero"/></g><path fill="#ffffff" d="M 178.605469 52.855469 C 178.574219 52.695312 178.484375 52.554688 178.347656 52.464844 C 170.046875 46.910156 160.386719 43.976562 150.40625 43.976562 C 140.015625 43.976562 130.027344 47.136719 121.519531 53.113281 C 121.386719 53.203125 121.300781 53.34375 121.277344 53.503906 C 121.25 53.664062 121.289062 53.828125 121.386719 53.960938 L 123.90625 57.375 L 124.414062 58.0625 L 124.699219 58.453125 L 125.480469 59.511719 C 125.5 59.5 125.523438 59.488281 125.542969 59.476562 L 126.730469 60.34375 L 136.710938 79.882812 C 136.070312 80.757812 135.691406 81.835938 135.691406 83 C 135.691406 85.910156 138.054688 88.28125 140.960938 88.28125 C 140.972656 88.28125 140.984375 88.28125 140.996094 88.28125 L 150.359375 106.613281 L 162.839844 81.066406 C 163.027344 81.089844 163.214844 81.101562 163.40625 81.101562 C 165.871094 81.101562 167.875 79.09375 167.875 76.625 C 167.875 75.386719 167.371094 74.261719 166.558594 73.453125 L 173.1875 59.882812 L 174.46875 59.046875 L 174.996094 58.300781 L 175.601562 57.4375 L 175.765625 57.210938 L 178.503906 53.316406 C 178.597656 53.179688 178.632812 53.015625 178.605469 52.855469 " fill-opacity="1" fill-rule="nonzero"/><path fill="#3e75a3" d="M 154.398438 82.410156 C 154.496094 82.054688 154.289062 81.691406 153.933594 81.59375 C 153.566406 81.496094 153.261719 81.257812 153.070312 80.925781 C 152.878906 80.59375 152.832031 80.210938 152.929688 79.84375 C 153.125 79.132812 153.027344 78.386719 152.664062 77.75 C 152.296875 77.109375 151.707031 76.652344 150.996094 76.457031 C 150.238281 76.25 149.789062 75.464844 149.996094 74.707031 C 150.089844 74.351562 149.882812 73.988281 149.53125 73.890625 C 149.175781 73.792969 148.8125 74.003906 148.714844 74.355469 C 148.316406 75.824219 149.1875 77.34375 150.648438 77.742188 C 151.015625 77.839844 151.324219 78.078125 151.511719 78.410156 C 151.703125 78.742188 151.75 79.125 151.652344 79.492188 C 151.457031 80.203125 151.554688 80.949219 151.917969 81.585938 C 152.285156 82.226562 152.875 82.683594 153.585938 82.878906 C 153.644531 82.894531 153.703125 82.898438 153.757812 82.898438 C 154.050781 82.898438 154.320312 82.707031 154.398438 82.410156 Z M 161.128906 59.820312 C 160.800781 60.011719 160.5625 60.320312 160.464844 60.6875 C 160.363281 61.054688 160.414062 61.441406 160.601562 61.769531 C 161.355469 63.089844 160.898438 64.777344 159.582031 65.535156 C 159.253906 65.726562 159.015625 66.03125 158.917969 66.398438 C 158.816406 66.769531 158.867188 67.152344 159.054688 67.484375 C 159.238281 67.800781 159.128906 68.207031 158.808594 68.390625 C 158.707031 68.449219 158.59375 68.480469 158.480469 68.480469 C 158.25 68.480469 158.027344 68.359375 157.90625 68.144531 C 157.539062 67.503906 157.445312 66.761719 157.636719 66.050781 C 157.828125 65.339844 158.285156 64.746094 158.921875 64.378906 C 159.605469 63.988281 159.839844 63.117188 159.449219 62.433594 C 159.085938 61.792969 158.992188 61.050781 159.183594 60.339844 C 159.375 59.628906 159.832031 59.035156 160.46875 58.667969 C 160.789062 58.484375 161.195312 58.597656 161.375 58.914062 C 161.558594 59.234375 161.449219 59.640625 161.128906 59.820312 " fill-opacity="1" fill-rule="nonzero"/><g clip-path="url(#fe8a699c19)"><path fill="#ef3044" d="M 144.902344 83 C 144.902344 85.179688 143.132812 86.949219 140.960938 86.949219 C 138.785156 86.949219 137.019531 85.179688 137.019531 83 C 137.019531 80.820312 138.785156 79.046875 140.960938 79.046875 C 143.132812 79.046875 144.902344 80.820312 144.902344 83 Z M 150.851562 62.039062 C 150.851562 64.21875 149.085938 65.992188 146.910156 65.992188 C 144.738281 65.992188 142.96875 64.21875 142.96875 62.039062 C 142.96875 59.863281 144.738281 58.089844 146.910156 58.089844 C 149.085938 58.089844 150.851562 59.863281 150.851562 62.039062 Z M 166.550781 76.625 C 166.550781 78.359375 165.140625 79.773438 163.40625 79.773438 C 161.675781 79.773438 160.265625 78.359375 160.265625 76.625 C 160.265625 74.890625 161.675781 73.476562 163.40625 73.476562 C 165.140625 73.476562 166.550781 74.890625 166.550781 76.625 Z M 155.039062 88.714844 C 155.070312 89.082031 154.800781 89.402344 154.433594 89.433594 C 154.054688 89.46875 153.710938 89.644531 153.464844 89.933594 C 153.222656 90.226562 153.101562 90.597656 153.132812 90.976562 C 153.195312 91.710938 152.96875 92.425781 152.496094 92.988281 C 152.019531 93.550781 151.355469 93.894531 150.625 93.957031 C 149.839844 94.019531 149.257812 94.710938 149.324219 95.496094 C 149.351562 95.863281 149.082031 96.183594 148.71875 96.214844 C 148.699219 96.21875 148.679688 96.21875 148.660156 96.21875 C 148.320312 96.21875 148.03125 95.957031 148 95.609375 C 147.875 94.09375 149 92.757812 150.511719 92.628906 C 150.890625 92.597656 151.234375 92.421875 151.480469 92.128906 C 151.726562 91.835938 151.84375 91.46875 151.8125 91.089844 C 151.75 90.355469 151.980469 89.640625 152.453125 89.078125 C 152.925781 88.515625 153.589844 88.171875 154.324219 88.109375 C 154.6875 88.082031 155.011719 88.351562 155.039062 88.714844 Z M 137.160156 68.316406 C 135.695312 67.917969 134.828125 66.402344 135.226562 64.933594 C 135.324219 64.578125 135.6875 64.371094 136.042969 64.464844 C 136.394531 64.5625 136.605469 64.925781 136.507812 65.28125 C 136.300781 66.039062 136.753906 66.828125 137.507812 67.035156 C 138.972656 67.433594 139.839844 68.949219 139.445312 70.417969 C 139.238281 71.179688 139.6875 71.964844 140.445312 72.167969 C 140.800781 72.265625 141.007812 72.632812 140.910156 72.984375 C 140.832031 73.28125 140.5625 73.476562 140.273438 73.476562 C 140.214844 73.476562 140.15625 73.46875 140.097656 73.453125 C 138.632812 73.054688 137.765625 71.535156 138.164062 70.070312 C 138.367188 69.308594 137.917969 68.523438 137.160156 68.316406 Z M 174.359375 58.992188 C 174.164062 58.886719 173.96875 58.785156 173.769531 58.6875 C 166.550781 55.015625 158.5 53.082031 150.40625 53.082031 C 141.949219 53.082031 133.585938 55.179688 126.125 59.160156 C 125.929688 59.265625 125.738281 59.371094 125.542969 59.476562 C 125.523438 59.488281 125.5 59.5 125.480469 59.511719 L 124.699219 58.453125 L 124.414062 58.0625 L 123.90625 57.375 L 121.386719 53.960938 C 121.289062 53.828125 121.25 53.664062 121.277344 53.503906 C 121.300781 53.34375 121.386719 53.203125 121.519531 53.113281 C 130.027344 47.136719 140.015625 43.976562 150.40625 43.976562 C 160.386719 43.976562 170.046875 46.910156 178.347656 52.464844 C 178.484375 52.554688 178.574219 52.695312 178.605469 52.855469 C 178.632812 53.015625 178.597656 53.179688 178.503906 53.316406 L 175.765625 57.210938 L 175.601562 57.4375 L 174.996094 58.300781 L 174.46875 59.046875 C 174.433594 59.03125 174.394531 59.007812 174.359375 58.992188 Z M 179.90625 52.609375 C 179.8125 52.09375 179.519531 51.652344 179.085938 51.359375 C 170.566406 45.660156 160.648438 42.644531 150.40625 42.644531 C 139.742188 42.644531 129.488281 45.886719 120.757812 52.023438 C 120.332031 52.324219 120.050781 52.773438 119.964844 53.289062 C 119.882812 53.808594 120.007812 54.328125 120.320312 54.75 L 124.761719 60.769531 C 124.890625 60.945312 125.089844 61.042969 125.296875 61.042969 C 125.386719 61.042969 125.480469 61.023438 125.566406 60.980469 C 125.585938 60.972656 125.601562 60.964844 125.621094 60.957031 C 125.796875 60.855469 125.972656 60.757812 126.148438 60.660156 C 126.339844 60.554688 126.535156 60.449219 126.730469 60.34375 C 134.003906 56.460938 142.160156 54.414062 150.40625 54.414062 C 158.300781 54.414062 166.144531 56.300781 173.1875 59.882812 C 173.382812 59.980469 173.582031 60.082031 173.777344 60.1875 C 173.96875 60.289062 174.164062 60.390625 174.359375 60.496094 C 174.359375 60.496094 174.363281 60.496094 174.363281 60.5 C 174.65625 60.65625 175.023438 60.570312 175.21875 60.292969 L 179.589844 54.082031 C 179.890625 53.652344 180.003906 53.128906 179.90625 52.609375 " fill-opacity="1" fill-rule="nonzero"/></g><g fill="#ef3044" fill-opacity="1"><g transform="translate(41.396465, 87.955698)"><g><path d="M 7.671875 -26.59375 C 9.773438 -26.59375 11.335938 -26.035156 12.359375 -24.921875 C 13.390625 -23.804688 13.90625 -22.175781 13.90625 -20.03125 L 13.90625 -16.5625 C 13.90625 -14.414062 13.390625 -12.785156 12.359375 -11.671875 C 11.335938 -10.554688 9.773438 -10 7.671875 -10 L 5.703125 -10 L 5.703125 0 L 1.515625 0 L 1.515625 -26.59375 Z M 5.703125 -22.796875 L 5.703125 -13.796875 L 7.671875 -13.796875 C 8.328125 -13.796875 8.832031 -13.972656 9.1875 -14.328125 C 9.550781 -14.679688 9.734375 -15.335938 9.734375 -16.296875 L 9.734375 -20.296875 C 9.734375 -21.253906 9.550781 -21.910156 9.1875 -22.265625 C 8.832031 -22.617188 8.328125 -22.796875 7.671875 -22.796875 Z M 5.703125 -22.796875 "/></g></g></g><g fill="#ef3044" fill-opacity="1"><g transform="translate(60.507538, 87.955698)"><g><path d="M 15.046875 0 L 10.828125 0 L 10.109375 -4.828125 L 4.984375 -4.828125 L 4.25 0 L 0.421875 0 L 4.671875 -26.59375 L 10.796875 -26.59375 Z M 5.515625 -8.4375 L 9.53125 -8.4375 L 7.53125 -21.890625 Z M 5.515625 -8.4375 "/></g></g></g><g fill="#ef3044" fill-opacity="1"><g transform="translate(198.873434, 87.955698)"><g><path d="M 7.671875 -26.59375 C 9.773438 -26.59375 11.335938 -26.035156 12.359375 -24.921875 C 13.390625 -23.804688 13.90625 -22.175781 13.90625 -20.03125 L 13.90625 -16.5625 C 13.90625 -14.414062 13.390625 -12.785156 12.359375 -11.671875 C 11.335938 -10.554688 9.773438 -10 7.671875 -10 L 5.703125 -10 L 5.703125 0 L 1.515625 0 L 1.515625 -26.59375 Z M 5.703125 -22.796875 L 5.703125 -13.796875 L 7.671875 -13.796875 C 8.328125 -13.796875 8.832031 -13.972656 9.1875 -14.328125 C 9.550781 -14.679688 9.734375 -15.335938 9.734375 -16.296875 L 9.734375 -20.296875 C 9.734375 -21.253906 9.550781 -21.910156 9.1875 -22.265625 C 8.832031 -22.617188 8.328125 -22.796875 7.671875 -22.796875 Z M 5.703125 -22.796875 "/></g></g></g><g fill="#ef3044" fill-opacity="1"><g transform="translate(218.136506, 87.955698)"><g><path d="M 1.515625 -26.59375 L 5.703125 -26.59375 L 5.703125 0 L 1.515625 0 Z M 1.515625 -26.59375 "/></g></g></g><g fill="#ef3044" fill-opacity="1"><g transform="translate(230.295029, 87.955698)"><g><path d="M 13.109375 -26.59375 L 13.109375 -22.875 L 5.171875 -3.796875 L 13.109375 -3.796875 L 13.109375 0 L 0.875 0 L 0.875 -3.71875 L 8.8125 -22.796875 L 1.25 -22.796875 L 1.25 -26.59375 Z M 13.109375 -26.59375 "/></g></g></g><g fill="#ef3044" fill-opacity="1"><g transform="translate(249.292163, 87.955698)"><g><path d="M 13.109375 -26.59375 L 13.109375 -22.875 L 5.171875 -3.796875 L 13.109375 -3.796875 L 13.109375 0 L 0.875 0 L 0.875 -3.71875 L 8.8125 -22.796875 L 1.25 -22.796875 L 1.25 -26.59375 Z M 13.109375 -26.59375 "/></g></g></g><g fill="#ef3044" fill-opacity="1"><g transform="translate(268.289298, 87.955698)"><g><path d="M 15.046875 0 L 10.828125 0 L 10.109375 -4.828125 L 4.984375 -4.828125 L 4.25 0 L 0.421875 0 L 4.671875 -26.59375 L 10.796875 -26.59375 Z M 5.515625 -8.4375 L 9.53125 -8.4375 L 7.53125 -21.890625 Z M 5.515625 -8.4375 "/></g></g></g><path stroke-linecap="butt" transform="matrix(1.494484, 0, 0, 1.5, 16.332359, 104.624549)" fill="none" stroke-linejoin="miter" d="M -0.000219566 0.000300335 L 63.736773 0.000300335 " stroke="#3e75a3" stroke-width="1" stroke-opacity="1" stroke-miterlimit="4"/><path stroke-linecap="butt" transform="matrix(1.494484, 0, 0, 1.5, 16.332359, 51.349137)" fill="none" stroke-linejoin="miter" d="M -0.000219566 -0.000986903 L 63.736773 -0.000986903 " stroke="#3e75a3" stroke-width="1" stroke-opacity="1" stroke-miterlimit="4"/><path stroke-linecap="butt" transform="matrix(1.494484, 0, 0, 1.5, 188.061217, 104.624549)" fill="none" stroke-linejoin="miter" d="M 0.000858404 0.000300335 L 63.737851 0.000300335 " stroke="#3e75a3" stroke-width="1" stroke-opacity="1" stroke-miterlimit="4"/><path stroke-linecap="butt" transform="matrix(1.494484, 0, 0, 1.5, 188.061217, 51.349137)" fill="none" stroke-linejoin="miter" d="M 0.000858404 -0.000986903 L 63.737851 -0.000986903 " stroke="#3e75a3" stroke-width="1" stroke-opacity="1" stroke-miterlimit="4"/><g fill="#3e75a3" fill-opacity="1"><g transform="translate(112.603965, 44.687282)"><g><path d="M -6.625 -9.453125 L -4.375 -11.234375 C -3.65625 -11.796875 -2.972656 -12.023438 -2.328125 -11.921875 C -1.679688 -11.828125 -1.066406 -11.410156 -0.484375 -10.671875 L 3.125 -6.109375 C 3.695312 -5.367188 3.957031 -4.671875 3.90625 -4.015625 C 3.863281 -3.359375 3.484375 -2.75 2.765625 -2.1875 L 0.515625 -0.40625 Z M -4.1875 -9.296875 L 0.921875 -2.8125 L 1.734375 -3.453125 C 1.953125 -3.628906 2.070312 -3.832031 2.09375 -4.0625 C 2.125 -4.300781 2.007812 -4.582031 1.75 -4.90625 L -1.96875 -9.609375 C -2.21875 -9.941406 -2.457031 -10.125 -2.6875 -10.15625 C -2.925781 -10.1875 -3.15625 -10.113281 -3.375 -9.9375 Z M -4.1875 -9.296875 "/></g></g></g><g fill="#3e75a3" fill-opacity="1"><g transform="translate(121.083979, 38.475061)"><g><path d="M -0.921875 -7.0625 L 1.28125 -8.21875 L 2.046875 -6.765625 L -0.15625 -5.609375 L 1.421875 -2.609375 L 4.203125 -4.0625 L 4.96875 -2.609375 L 0.578125 -0.3125 L -4.796875 -10.515625 L -0.40625 -12.8125 L 0.359375 -11.359375 L -2.421875 -9.90625 Z M -0.921875 -7.0625 "/></g></g></g><g fill="#3e75a3" fill-opacity="1"><g transform="translate(129.987789, 34.178496)"><g><path d="M -2.90625 -11.1875 L -1.1875 -11.734375 L 1.84375 -2.3125 L 4.6875 -3.234375 L 5.1875 -1.671875 L 0.625 -0.203125 Z M -2.90625 -11.1875 "/></g></g></g><g fill="#3e75a3" fill-opacity="1"><g transform="translate(139.165235, 31.628014)"><g><path d="M -1.21875 -11.484375 L 0.578125 -11.78125 L 2.4375 -0.40625 L 0.640625 -0.109375 Z M -1.21875 -11.484375 "/></g></g></g><g fill="#3e75a3" fill-opacity="1"><g transform="translate(146.125297, 30.666768)"><g><path d="M 5.890625 -4.34375 L 5.90625 -2.8125 C 5.90625 -1.882812 5.675781 -1.164062 5.21875 -0.65625 C 4.769531 -0.15625 4.101562 0.0976562 3.21875 0.109375 C 2.320312 0.109375 1.644531 -0.132812 1.1875 -0.625 C 0.726562 -1.125 0.5 -1.835938 0.5 -2.765625 L 0.453125 -8.765625 C 0.441406 -9.703125 0.660156 -10.421875 1.109375 -10.921875 C 1.566406 -11.429688 2.242188 -11.6875 3.140625 -11.6875 C 4.023438 -11.695312 4.695312 -11.453125 5.15625 -10.953125 C 5.613281 -10.460938 5.847656 -9.75 5.859375 -8.8125 L 5.875 -7.703125 L 4.15625 -7.6875 L 4.140625 -8.921875 C 4.140625 -9.335938 4.050781 -9.628906 3.875 -9.796875 C 3.695312 -9.960938 3.46875 -10.039062 3.1875 -10.03125 C 2.894531 -10.03125 2.664062 -9.945312 2.5 -9.78125 C 2.34375 -9.613281 2.265625 -9.320312 2.265625 -8.90625 L 2.3125 -2.671875 C 2.3125 -2.253906 2.394531 -1.960938 2.5625 -1.796875 C 2.726562 -1.628906 2.957031 -1.546875 3.25 -1.546875 C 3.53125 -1.554688 3.753906 -1.644531 3.921875 -1.8125 C 4.097656 -1.976562 4.1875 -2.269531 4.1875 -2.6875 L 4.171875 -4.328125 Z M 5.890625 -4.34375 "/></g></g></g><g fill="#3e75a3" fill-opacity="1"><g transform="translate(156.361978, 31.020351)"><g><path d="M 2.359375 -11.3125 L 4.140625 -11.046875 L 2.4375 0.359375 L 0.65625 0.09375 Z M 2.359375 -11.3125 "/></g></g></g><g fill="#3e75a3" fill-opacity="1"><g transform="translate(163.279251, 32.227133)"><g><path d="M 3.015625 -1.828125 C 2.890625 -1.429688 2.878906 -1.128906 2.984375 -0.921875 C 3.097656 -0.710938 3.289062 -0.5625 3.5625 -0.46875 C 3.832031 -0.382812 4.078125 -0.394531 4.296875 -0.5 C 4.515625 -0.613281 4.6875 -0.867188 4.8125 -1.265625 L 6.6875 -7.21875 C 6.8125 -7.613281 6.8125 -7.914062 6.6875 -8.125 C 6.570312 -8.332031 6.378906 -8.476562 6.109375 -8.5625 C 5.835938 -8.65625 5.597656 -8.644531 5.390625 -8.53125 C 5.179688 -8.425781 5.015625 -8.175781 4.890625 -7.78125 Z M 3.109375 -8.203125 C 3.390625 -9.097656 3.828125 -9.710938 4.421875 -10.046875 C 5.023438 -10.390625 5.753906 -10.425781 6.609375 -10.15625 C 7.453125 -9.894531 8.023438 -9.453125 8.328125 -8.828125 C 8.628906 -8.203125 8.640625 -7.441406 8.359375 -6.546875 L 6.5625 -0.828125 C 6.28125 0.0546875 5.835938 0.664062 5.234375 1 C 4.640625 1.332031 3.921875 1.367188 3.078125 1.109375 C 2.222656 0.835938 1.644531 0.394531 1.34375 -0.21875 C 1.039062 -0.84375 1.03125 -1.597656 1.3125 -2.484375 Z M 3.109375 -8.203125 "/></g></g></g><g fill="#3e75a3" fill-opacity="1"><g transform="translate(173.001487, 35.652075)"><g><path d="M 7.546875 -9.046875 L 3.359375 -1.203125 C 3.160156 -0.835938 3.097656 -0.539062 3.171875 -0.3125 C 3.242188 -0.0820312 3.40625 0.09375 3.65625 0.21875 C 3.914062 0.363281 4.15625 0.398438 4.375 0.328125 C 4.601562 0.265625 4.816406 0.0507812 5.015625 -0.3125 L 9.203125 -8.15625 L 10.71875 -7.359375 L 6.578125 0.390625 C 6.140625 1.203125 5.597656 1.722656 4.953125 1.953125 C 4.316406 2.179688 3.609375 2.085938 2.828125 1.671875 C 2.035156 1.242188 1.554688 0.703125 1.390625 0.046875 C 1.234375 -0.609375 1.375 -1.34375 1.8125 -2.15625 L 5.953125 -9.90625 Z M 7.546875 -9.046875 "/></g></g></g><g fill="#3e75a3" fill-opacity="1"><g transform="translate(181.954356, 40.845966)"><g><path d="M 5.796875 -6.59375 C 6.378906 -7.320312 7 -7.742188 7.65625 -7.859375 C 8.320312 -7.972656 9.003906 -7.753906 9.703125 -7.203125 C 10.398438 -6.640625 10.765625 -6.023438 10.796875 -5.359375 C 10.835938 -4.691406 10.566406 -3.992188 9.984375 -3.265625 L 9.703125 -2.921875 L 8.359375 -3.984375 L 8.71875 -4.421875 C 8.976562 -4.742188 9.097656 -5.019531 9.078125 -5.25 C 9.054688 -5.476562 8.9375 -5.679688 8.71875 -5.859375 C 8.488281 -6.046875 8.257812 -6.125 8.03125 -6.09375 C 7.800781 -6.0625 7.554688 -5.882812 7.296875 -5.5625 C 7.046875 -5.25 6.894531 -4.921875 6.84375 -4.578125 C 6.789062 -4.234375 6.78125 -3.867188 6.8125 -3.484375 C 6.851562 -3.109375 6.910156 -2.722656 6.984375 -2.328125 C 7.054688 -1.929688 7.097656 -1.523438 7.109375 -1.109375 C 7.117188 -0.691406 7.0625 -0.269531 6.9375 0.15625 C 6.8125 0.582031 6.578125 1.015625 6.234375 1.453125 C 5.660156 2.171875 5.039062 2.582031 4.375 2.6875 C 3.707031 2.789062 3.023438 2.566406 2.328125 2.015625 C 1.640625 1.460938 1.269531 0.847656 1.21875 0.171875 C 1.175781 -0.503906 1.441406 -1.203125 2.015625 -1.921875 L 2.515625 -2.546875 L 3.859375 -1.46875 L 3.296875 -0.765625 C 3.035156 -0.441406 2.921875 -0.164062 2.953125 0.0625 C 2.984375 0.300781 3.109375 0.507812 3.328125 0.6875 C 3.554688 0.863281 3.785156 0.9375 4.015625 0.90625 C 4.253906 0.882812 4.503906 0.710938 4.765625 0.390625 C 5.015625 0.078125 5.160156 -0.25 5.203125 -0.59375 C 5.253906 -0.9375 5.257812 -1.296875 5.21875 -1.671875 C 5.1875 -2.046875 5.132812 -2.429688 5.0625 -2.828125 C 5 -3.222656 4.960938 -3.625 4.953125 -4.03125 C 4.941406 -4.445312 4.992188 -4.867188 5.109375 -5.296875 C 5.222656 -5.734375 5.453125 -6.164062 5.796875 -6.59375 Z M 5.796875 -6.59375 "/></g></g></g><g fill="#3e75a3" fill-opacity="1"><g transform="translate(110.133329, 128.205705)"><g><path d="M 0.34375 -7.171875 C 0.34375 -7.929688 0.523438 -8.515625 0.890625 -8.921875 C 1.253906 -9.335938 1.800781 -9.546875 2.53125 -9.546875 C 3.257812 -9.546875 3.804688 -9.335938 4.171875 -8.921875 C 4.535156 -8.515625 4.71875 -7.929688 4.71875 -7.171875 L 4.71875 -6.8125 L 3.3125 -6.8125 L 3.3125 -7.265625 C 3.3125 -7.609375 3.242188 -7.847656 3.109375 -7.984375 C 2.984375 -8.128906 2.804688 -8.203125 2.578125 -8.203125 C 2.335938 -8.203125 2.148438 -8.128906 2.015625 -7.984375 C 1.890625 -7.847656 1.828125 -7.609375 1.828125 -7.265625 C 1.828125 -6.941406 1.898438 -6.65625 2.046875 -6.40625 C 2.191406 -6.164062 2.367188 -5.929688 2.578125 -5.703125 C 2.796875 -5.484375 3.03125 -5.265625 3.28125 -5.046875 C 3.53125 -4.828125 3.757812 -4.585938 3.96875 -4.328125 C 4.1875 -4.066406 4.367188 -3.769531 4.515625 -3.4375 C 4.660156 -3.101562 4.734375 -2.710938 4.734375 -2.265625 C 4.734375 -1.503906 4.546875 -0.914062 4.171875 -0.5 C 3.796875 -0.09375 3.242188 0.109375 2.515625 0.109375 C 1.785156 0.109375 1.234375 -0.09375 0.859375 -0.5 C 0.492188 -0.914062 0.3125 -1.503906 0.3125 -2.265625 L 0.3125 -2.90625 L 1.71875 -2.90625 L 1.71875 -2.171875 C 1.71875 -1.828125 1.785156 -1.585938 1.921875 -1.453125 C 2.054688 -1.316406 2.242188 -1.25 2.484375 -1.25 C 2.710938 -1.25 2.894531 -1.316406 3.03125 -1.453125 C 3.175781 -1.585938 3.25 -1.828125 3.25 -2.171875 C 3.25 -2.492188 3.175781 -2.773438 3.03125 -3.015625 C 2.882812 -3.265625 2.703125 -3.5 2.484375 -3.71875 C 2.273438 -3.945312 2.046875 -4.171875 1.796875 -4.390625 C 1.546875 -4.609375 1.3125 -4.847656 1.09375 -5.109375 C 0.882812 -5.367188 0.707031 -5.664062 0.5625 -6 C 0.414062 -6.332031 0.34375 -6.722656 0.34375 -7.171875 Z M 0.34375 -7.171875 "/></g></g></g><g fill="#3e75a3" fill-opacity="1"><g transform="translate(118.814546, 128.205705)"><g><path d="M 0.546875 -9.4375 L 2.015625 -9.4375 L 2.015625 0 L 0.546875 0 Z M 0.546875 -9.4375 "/></g></g></g><g fill="#3e75a3" fill-opacity="1"><g transform="translate(125.016092, 128.205705)"><g><path d="M 1.859375 -6.84375 L 1.859375 0 L 0.53125 0 L 0.53125 -9.4375 L 2.390625 -9.4375 L 3.90625 -3.796875 L 3.90625 -9.4375 L 5.234375 -9.4375 L 5.234375 0 L 3.703125 0 Z M 1.859375 -6.84375 "/></g></g></g><g fill="#3e75a3" fill-opacity="1"><g transform="translate(134.411567, 128.205705)"><g><path d="M 4.84375 -3.515625 L 4.84375 -2.265625 C 4.84375 -1.503906 4.65625 -0.914062 4.28125 -0.5 C 3.90625 -0.09375 3.351562 0.109375 2.625 0.109375 C 1.894531 0.109375 1.34375 -0.09375 0.96875 -0.5 C 0.601562 -0.914062 0.421875 -1.503906 0.421875 -2.265625 L 0.421875 -7.171875 C 0.421875 -7.929688 0.601562 -8.515625 0.96875 -8.921875 C 1.34375 -9.335938 1.894531 -9.546875 2.625 -9.546875 C 3.351562 -9.546875 3.90625 -9.335938 4.28125 -8.921875 C 4.65625 -8.515625 4.84375 -7.929688 4.84375 -7.171875 L 4.84375 -6.25 L 3.4375 -6.25 L 3.4375 -7.265625 C 3.4375 -7.609375 3.363281 -7.847656 3.21875 -7.984375 C 3.082031 -8.128906 2.898438 -8.203125 2.671875 -8.203125 C 2.429688 -8.203125 2.242188 -8.128906 2.109375 -7.984375 C 1.972656 -7.847656 1.90625 -7.609375 1.90625 -7.265625 L 1.90625 -2.171875 C 1.90625 -1.828125 1.972656 -1.585938 2.109375 -1.453125 C 2.242188 -1.316406 2.429688 -1.25 2.671875 -1.25 C 2.898438 -1.25 3.082031 -1.316406 3.21875 -1.453125 C 3.363281 -1.585938 3.4375 -1.828125 3.4375 -2.171875 L 3.4375 -3.515625 Z M 4.84375 -3.515625 "/></g></g></g><g fill="#3e75a3" fill-opacity="1"><g transform="translate(143.254502, 128.205705)"><g><path d="M 2.015625 -5.46875 L 4.0625 -5.46875 L 4.0625 -4.109375 L 2.015625 -4.109375 L 2.015625 -1.34375 L 4.578125 -1.34375 L 4.578125 0 L 0.546875 0 L 0.546875 -9.4375 L 4.578125 -9.4375 L 4.578125 -8.09375 L 2.015625 -8.09375 Z M 2.015625 -5.46875 "/></g></g></g><g fill="#3e75a3" fill-opacity="1"><g transform="translate(151.854868, 128.205705)"><g/></g></g><g fill="#3e75a3" fill-opacity="1"><g transform="translate(157.584736, 128.205705)"><g><path d="M 3.484375 -7.125 C 3.484375 -7.539062 3.410156 -7.820312 3.265625 -7.96875 C 3.128906 -8.125 2.941406 -8.203125 2.703125 -8.203125 C 2.472656 -8.203125 2.285156 -8.128906 2.140625 -7.984375 C 2.003906 -7.847656 1.9375 -7.609375 1.9375 -7.265625 L 1.9375 -6.25 L 0.546875 -6.25 L 0.546875 -7.171875 C 0.546875 -7.929688 0.726562 -8.515625 1.09375 -8.921875 C 1.46875 -9.335938 2.019531 -9.546875 2.75 -9.546875 C 3.476562 -9.546875 4.03125 -9.335938 4.40625 -8.921875 C 4.78125 -8.515625 4.96875 -7.929688 4.96875 -7.171875 C 4.96875 -6.660156 4.882812 -6.195312 4.71875 -5.78125 C 4.5625 -5.375 4.367188 -5 4.140625 -4.65625 C 3.910156 -4.3125 3.660156 -4 3.390625 -3.71875 C 3.117188 -3.4375 2.875 -3.164062 2.65625 -2.90625 C 2.4375 -2.644531 2.265625 -2.390625 2.140625 -2.140625 C 2.015625 -1.890625 1.972656 -1.625 2.015625 -1.34375 L 4.828125 -1.34375 L 4.828125 0 L 0.546875 0 L 0.546875 -1.15625 C 0.546875 -1.613281 0.613281 -2.019531 0.75 -2.375 C 0.894531 -2.726562 1.078125 -3.050781 1.296875 -3.34375 C 1.515625 -3.632812 1.75 -3.90625 2 -4.15625 C 2.257812 -4.414062 2.5 -4.6875 2.71875 -4.96875 C 2.9375 -5.257812 3.117188 -5.578125 3.265625 -5.921875 C 3.410156 -6.265625 3.484375 -6.664062 3.484375 -7.125 Z M 3.484375 -7.125 "/></g></g></g><g fill="#3e75a3" fill-opacity="1"><g transform="translate(166.562437, 128.205705)"><g><path d="M 1.90625 -2.171875 C 1.90625 -1.828125 1.972656 -1.582031 2.109375 -1.4375 C 2.242188 -1.300781 2.429688 -1.234375 2.671875 -1.234375 C 2.898438 -1.234375 3.082031 -1.300781 3.21875 -1.4375 C 3.363281 -1.582031 3.4375 -1.828125 3.4375 -2.171875 L 3.4375 -7.265625 C 3.4375 -7.609375 3.363281 -7.847656 3.21875 -7.984375 C 3.082031 -8.128906 2.898438 -8.203125 2.671875 -8.203125 C 2.429688 -8.203125 2.242188 -8.128906 2.109375 -7.984375 C 1.972656 -7.847656 1.90625 -7.609375 1.90625 -7.265625 Z M 0.421875 -7.171875 C 0.421875 -7.929688 0.613281 -8.515625 1 -8.921875 C 1.382812 -9.335938 1.941406 -9.546875 2.671875 -9.546875 C 3.398438 -9.546875 3.957031 -9.335938 4.34375 -8.921875 C 4.726562 -8.515625 4.921875 -7.929688 4.921875 -7.171875 L 4.921875 -2.265625 C 4.921875 -1.503906 4.726562 -0.914062 4.34375 -0.5 C 3.957031 -0.09375 3.398438 0.109375 2.671875 0.109375 C 1.941406 0.109375 1.382812 -0.09375 1 -0.5 C 0.613281 -0.914062 0.421875 -1.503906 0.421875 -2.265625 Z M 0.421875 -7.171875 "/></g></g></g><g fill="#3e75a3" fill-opacity="1"><g transform="translate(175.540137, 128.205705)"><g><path d="M 3.484375 -7.125 C 3.484375 -7.539062 3.410156 -7.820312 3.265625 -7.96875 C 3.128906 -8.125 2.941406 -8.203125 2.703125 -8.203125 C 2.472656 -8.203125 2.285156 -8.128906 2.140625 -7.984375 C 2.003906 -7.847656 1.9375 -7.609375 1.9375 -7.265625 L 1.9375 -6.25 L 0.546875 -6.25 L 0.546875 -7.171875 C 0.546875 -7.929688 0.726562 -8.515625 1.09375 -8.921875 C 1.46875 -9.335938 2.019531 -9.546875 2.75 -9.546875 C 3.476562 -9.546875 4.03125 -9.335938 4.40625 -8.921875 C 4.78125 -8.515625 4.96875 -7.929688 4.96875 -7.171875 C 4.96875 -6.660156 4.882812 -6.195312 4.71875 -5.78125 C 4.5625 -5.375 4.367188 -5 4.140625 -4.65625 C 3.910156 -4.3125 3.660156 -4 3.390625 -3.71875 C 3.117188 -3.4375 2.875 -3.164062 2.65625 -2.90625 C 2.4375 -2.644531 2.265625 -2.390625 2.140625 -2.140625 C 2.015625 -1.890625 1.972656 -1.625 2.015625 -1.34375 L 4.828125 -1.34375 L 4.828125 0 L 0.546875 0 L 0.546875 -1.15625 C 0.546875 -1.613281 0.613281 -2.019531 0.75 -2.375 C 0.894531 -2.726562 1.078125 -3.050781 1.296875 -3.34375 C 1.515625 -3.632812 1.75 -3.90625 2 -4.15625 C 2.257812 -4.414062 2.5 -4.6875 2.71875 -4.96875 C 2.9375 -5.257812 3.117188 -5.578125 3.265625 -5.921875 C 3.410156 -6.265625 3.484375 -6.664062 3.484375 -7.125 Z M 3.484375 -7.125 "/></g></g></g><g fill="#3e75a3" fill-opacity="1"><g transform="translate(184.517838, 128.205705)"><g><path d="M 3.484375 -7.125 C 3.484375 -7.539062 3.410156 -7.820312 3.265625 -7.96875 C 3.128906 -8.125 2.941406 -8.203125 2.703125 -8.203125 C 2.472656 -8.203125 2.285156 -8.128906 2.140625 -7.984375 C 2.003906 -7.847656 1.9375 -7.609375 1.9375 -7.265625 L 1.9375 -6.25 L 0.546875 -6.25 L 0.546875 -7.171875 C 0.546875 -7.929688 0.726562 -8.515625 1.09375 -8.921875 C 1.46875 -9.335938 2.019531 -9.546875 2.75 -9.546875 C 3.476562 -9.546875 4.03125 -9.335938 4.40625 -8.921875 C 4.78125 -8.515625 4.96875 -7.929688 4.96875 -7.171875 C 4.96875 -6.660156 4.882812 -6.195312 4.71875 -5.78125 C 4.5625 -5.375 4.367188 -5 4.140625 -4.65625 C 3.910156 -4.3125 3.660156 -4 3.390625 -3.71875 C 3.117188 -3.4375 2.875 -3.164062 2.65625 -2.90625 C 2.4375 -2.644531 2.265625 -2.390625 2.140625 -2.140625 C 2.015625 -1.890625 1.972656 -1.625 2.015625 -1.34375 L 4.828125 -1.34375 L 4.828125 0 L 0.546875 0 L 0.546875 -1.15625 C 0.546875 -1.613281 0.613281 -2.019531 0.75 -2.375 C 0.894531 -2.726562 1.078125 -3.050781 1.296875 -3.34375 C 1.515625 -3.632812 1.75 -3.90625 2 -4.15625 C 2.257812 -4.414062 2.5 -4.6875 2.71875 -4.96875 C 2.9375 -5.257812 3.117188 -5.578125 3.265625 -5.921875 C 3.410156 -6.265625 3.484375 -6.664062 3.484375 -7.125 Z M 3.484375 -7.125 "/></g></g></g></svg>