<svg xmlns="http://www.w3.org/2000/svg" xmlns:xlink="http://www.w3.org/1999/xlink" width="500" zoomAndPan="magnify" viewBox="0 0 375 374.999991" height="500" preserveAspectRatio="xMidYMid meet" version="1.0"><defs><g/><clipPath id="71cbd66014"><path d="M 163 159 L 212 159 L 212 222.3125 L 163 222.3125 Z M 163 159 " clip-rule="nonzero"/></clipPath><clipPath id="22b8b0c4d6"><path d="M 157.441406 155.355469 L 217.441406 155.355469 L 217.441406 209 L 157.441406 209 Z M 157.441406 155.355469 " clip-rule="nonzero"/></clipPath></defs><g clip-path="url(#71cbd66014)"><path fill="#3e75a3" d="M 211.863281 173.207031 L 187.886719 222.292969 L 163.066406 173.691406 C 163.085938 173.683594 163.121094 173.683594 163.121094 173.664062 C 163.121094 155.355469 211.859375 154.835938 211.859375 173.207031 C 211.859375 173.207031 211.859375 173.207031 211.863281 173.207031 " fill-opacity="1" fill-rule="nonzero"/></g><path fill="#ffffff" d="M 216.105469 165.5625 C 216.074219 165.402344 215.984375 165.265625 215.847656 165.175781 C 207.546875 159.621094 197.886719 156.683594 187.90625 156.683594 C 177.515625 156.683594 167.527344 159.84375 159.019531 165.820312 C 158.886719 165.914062 158.800781 166.050781 158.777344 166.210938 C 158.75 166.375 158.789062 166.535156 158.886719 166.667969 L 161.40625 170.082031 L 161.914062 170.769531 L 162.199219 171.160156 L 162.980469 172.21875 C 163 172.207031 163.023438 172.195312 163.042969 172.183594 L 164.230469 173.054688 L 174.210938 192.59375 C 173.570312 193.464844 173.191406 194.542969 173.191406 195.707031 C 173.191406 198.621094 175.554688 200.988281 178.460938 200.988281 C 178.472656 200.988281 178.484375 200.988281 178.496094 200.988281 L 187.859375 219.324219 L 200.339844 193.773438 C 200.527344 193.796875 200.714844 193.808594 200.90625 193.808594 C 203.371094 193.808594 205.375 191.800781 205.375 189.332031 C 205.375 188.09375 204.871094 186.972656 204.058594 186.160156 L 210.6875 172.589844 L 211.96875 171.757812 L 212.496094 171.007812 L 213.101562 170.144531 L 213.265625 169.917969 L 216.003906 166.023438 C 216.097656 165.886719 216.132812 165.726562 216.105469 165.5625 " fill-opacity="1" fill-rule="nonzero"/><path fill="#3e75a3" d="M 191.898438 195.117188 C 191.996094 194.761719 191.789062 194.398438 191.433594 194.300781 C 191.066406 194.203125 190.761719 193.964844 190.570312 193.632812 C 190.378906 193.304688 190.332031 192.917969 190.429688 192.550781 C 190.625 191.839844 190.527344 191.09375 190.164062 190.457031 C 189.796875 189.816406 189.207031 189.359375 188.496094 189.167969 C 187.738281 188.960938 187.289062 188.175781 187.496094 187.414062 C 187.589844 187.058594 187.382812 186.695312 187.03125 186.597656 C 186.675781 186.503906 186.3125 186.710938 186.214844 187.066406 C 185.816406 188.535156 186.6875 190.050781 188.148438 190.449219 C 188.515625 190.550781 188.824219 190.789062 189.011719 191.117188 C 189.203125 191.449219 189.25 191.832031 189.152344 192.203125 C 188.957031 192.914062 189.054688 193.65625 189.417969 194.296875 C 189.785156 194.933594 190.375 195.394531 191.085938 195.585938 C 191.144531 195.601562 191.203125 195.609375 191.257812 195.609375 C 191.550781 195.609375 191.820312 195.414062 191.898438 195.117188 Z M 198.628906 172.53125 C 198.300781 172.71875 198.0625 173.027344 197.964844 173.394531 C 197.863281 173.761719 197.914062 174.148438 198.101562 174.480469 C 198.855469 175.796875 198.398438 177.488281 197.082031 178.242188 C 196.753906 178.433594 196.515625 178.738281 196.417969 179.109375 C 196.316406 179.476562 196.367188 179.859375 196.554688 180.191406 C 196.738281 180.511719 196.628906 180.917969 196.308594 181.097656 C 196.207031 181.160156 196.09375 181.1875 195.980469 181.1875 C 195.75 181.1875 195.527344 181.066406 195.40625 180.851562 C 195.039062 180.214844 194.945312 179.472656 195.136719 178.757812 C 195.328125 178.050781 195.785156 177.457031 196.421875 177.089844 C 197.105469 176.699219 197.339844 175.824219 196.949219 175.140625 C 196.585938 174.5 196.492188 173.757812 196.683594 173.046875 C 196.875 172.335938 197.332031 171.742188 197.96875 171.375 C 198.289062 171.195312 198.695312 171.304688 198.875 171.621094 C 199.058594 171.941406 198.949219 172.347656 198.628906 172.53125 " fill-opacity="1" fill-rule="nonzero"/><g clip-path="url(#22b8b0c4d6)"><path fill="#ef3044" d="M 182.402344 195.707031 C 182.402344 197.886719 180.632812 199.660156 178.460938 199.660156 C 176.285156 199.660156 174.519531 197.886719 174.519531 195.707031 C 174.519531 193.53125 176.285156 191.757812 178.460938 191.757812 C 180.632812 191.757812 182.402344 193.53125 182.402344 195.707031 Z M 188.351562 174.75 C 188.351562 176.925781 186.585938 178.699219 184.410156 178.699219 C 182.238281 178.699219 180.46875 176.925781 180.46875 174.75 C 180.46875 172.570312 182.238281 170.796875 184.410156 170.796875 C 186.585938 170.796875 188.351562 172.570312 188.351562 174.75 Z M 204.050781 189.332031 C 204.050781 191.070312 202.640625 192.480469 200.90625 192.480469 C 199.175781 192.480469 197.765625 191.070312 197.765625 189.332031 C 197.765625 187.597656 199.175781 186.183594 200.90625 186.183594 C 202.640625 186.183594 204.050781 187.597656 204.050781 189.332031 Z M 192.539062 201.425781 C 192.570312 201.789062 192.300781 202.113281 191.933594 202.144531 C 191.554688 202.175781 191.210938 202.351562 190.964844 202.644531 C 190.722656 202.9375 190.601562 203.304688 190.632812 203.683594 C 190.695312 204.417969 190.46875 205.132812 189.996094 205.695312 C 189.519531 206.257812 188.855469 206.601562 188.125 206.664062 C 187.339844 206.730469 186.757812 207.421875 186.824219 208.203125 C 186.851562 208.570312 186.582031 208.894531 186.21875 208.925781 C 186.199219 208.925781 186.179688 208.925781 186.160156 208.925781 C 185.820312 208.925781 185.53125 208.664062 185.5 208.316406 C 185.375 206.800781 186.5 205.464844 188.011719 205.339844 C 188.390625 205.304688 188.734375 205.128906 188.980469 204.835938 C 189.226562 204.546875 189.34375 204.175781 189.3125 203.796875 C 189.25 203.0625 189.480469 202.347656 189.953125 201.785156 C 190.425781 201.222656 191.089844 200.878906 191.824219 200.816406 C 192.1875 200.789062 192.511719 201.058594 192.539062 201.425781 Z M 174.660156 181.023438 C 173.195312 180.628906 172.328125 179.109375 172.726562 177.640625 C 172.824219 177.289062 173.1875 177.078125 173.542969 177.171875 C 173.894531 177.269531 174.105469 177.636719 174.007812 177.988281 C 173.800781 178.75 174.253906 179.535156 175.007812 179.742188 C 176.472656 180.140625 177.339844 181.660156 176.945312 183.125 C 176.738281 183.886719 177.1875 184.671875 177.945312 184.878906 C 178.300781 184.972656 178.507812 185.339844 178.410156 185.695312 C 178.332031 185.992188 178.0625 186.183594 177.773438 186.183594 C 177.714844 186.183594 177.65625 186.175781 177.597656 186.160156 C 176.132812 185.761719 175.265625 184.246094 175.664062 182.777344 C 175.867188 182.015625 175.417969 181.230469 174.660156 181.023438 Z M 211.859375 171.699219 C 211.664062 171.597656 211.46875 171.496094 211.269531 171.394531 C 204.050781 167.722656 196 165.792969 187.90625 165.792969 C 179.449219 165.792969 171.085938 167.890625 163.625 171.871094 C 163.429688 171.972656 163.238281 172.078125 163.042969 172.183594 C 163.023438 172.195312 163 172.207031 162.980469 172.21875 L 162.199219 171.160156 L 161.914062 170.769531 L 161.40625 170.082031 L 158.886719 166.667969 C 158.789062 166.535156 158.75 166.375 158.777344 166.210938 C 158.800781 166.050781 158.886719 165.914062 159.019531 165.820312 C 167.527344 159.84375 177.515625 156.683594 187.90625 156.683594 C 197.886719 156.683594 207.546875 159.621094 215.847656 165.175781 C 215.984375 165.265625 216.074219 165.402344 216.105469 165.5625 C 216.132812 165.726562 216.097656 165.886719 216.003906 166.023438 L 213.265625 169.917969 L 213.101562 170.144531 L 212.496094 171.007812 L 211.96875 171.757812 C 211.933594 171.738281 211.894531 171.71875 211.859375 171.699219 Z M 217.40625 165.320312 C 217.3125 164.804688 217.019531 164.359375 216.585938 164.070312 C 208.066406 158.367188 198.148438 155.355469 187.90625 155.355469 C 177.242188 155.355469 166.988281 158.597656 158.257812 164.730469 C 157.832031 165.03125 157.550781 165.480469 157.464844 165.996094 C 157.382812 166.519531 157.507812 167.035156 157.820312 167.460938 L 162.261719 173.480469 C 162.390625 173.65625 162.589844 173.75 162.796875 173.75 C 162.886719 173.75 162.980469 173.730469 163.066406 173.691406 C 163.085938 173.683594 163.101562 173.675781 163.121094 173.664062 C 163.296875 173.5625 163.472656 173.46875 163.648438 173.371094 C 163.839844 173.265625 164.035156 173.160156 164.230469 173.054688 C 171.503906 169.171875 179.660156 167.121094 187.90625 167.121094 C 195.800781 167.121094 203.644531 169.007812 210.6875 172.589844 C 210.882812 172.691406 211.082031 172.792969 211.277344 172.894531 C 211.46875 172.996094 211.664062 173.097656 211.859375 173.207031 C 211.859375 173.207031 211.863281 173.207031 211.863281 173.207031 C 212.15625 173.363281 212.523438 173.277344 212.71875 173.003906 L 217.089844 166.789062 C 217.390625 166.359375 217.503906 165.835938 217.40625 165.320312 " fill-opacity="1" fill-rule="nonzero"/></g><g fill="#ef3044" fill-opacity="1"><g transform="translate(78.896464, 200.664025)"><g><path d="M 7.671875 -26.59375 C 9.773438 -26.59375 11.335938 -26.035156 12.359375 -24.921875 C 13.390625 -23.804688 13.90625 -22.175781 13.90625 -20.03125 L 13.90625 -16.5625 C 13.90625 -14.414062 13.390625 -12.785156 12.359375 -11.671875 C 11.335938 -10.554688 9.773438 -10 7.671875 -10 L 5.703125 -10 L 5.703125 0 L 1.515625 0 L 1.515625 -26.59375 Z M 5.703125 -22.796875 L 5.703125 -13.796875 L 7.671875 -13.796875 C 8.328125 -13.796875 8.832031 -13.972656 9.1875 -14.328125 C 9.550781 -14.679688 9.734375 -15.335938 9.734375 -16.296875 L 9.734375 -20.296875 C 9.734375 -21.253906 9.550781 -21.910156 9.1875 -22.265625 C 8.832031 -22.617188 8.328125 -22.796875 7.671875 -22.796875 Z M 5.703125 -22.796875 "/></g></g></g><g fill="#ef3044" fill-opacity="1"><g transform="translate(98.007537, 200.664025)"><g><path d="M 15.046875 0 L 10.828125 0 L 10.109375 -4.828125 L 4.984375 -4.828125 L 4.25 0 L 0.421875 0 L 4.671875 -26.59375 L 10.796875 -26.59375 Z M 5.515625 -8.4375 L 9.53125 -8.4375 L 7.53125 -21.890625 Z M 5.515625 -8.4375 "/></g></g></g><g fill="#ef3044" fill-opacity="1"><g transform="translate(236.373432, 200.664025)"><g><path d="M 7.671875 -26.59375 C 9.773438 -26.59375 11.335938 -26.035156 12.359375 -24.921875 C 13.390625 -23.804688 13.90625 -22.175781 13.90625 -20.03125 L 13.90625 -16.5625 C 13.90625 -14.414062 13.390625 -12.785156 12.359375 -11.671875 C 11.335938 -10.554688 9.773438 -10 7.671875 -10 L 5.703125 -10 L 5.703125 0 L 1.515625 0 L 1.515625 -26.59375 Z M 5.703125 -22.796875 L 5.703125 -13.796875 L 7.671875 -13.796875 C 8.328125 -13.796875 8.832031 -13.972656 9.1875 -14.328125 C 9.550781 -14.679688 9.734375 -15.335938 9.734375 -16.296875 L 9.734375 -20.296875 C 9.734375 -21.253906 9.550781 -21.910156 9.1875 -22.265625 C 8.832031 -22.617188 8.328125 -22.796875 7.671875 -22.796875 Z M 5.703125 -22.796875 "/></g></g></g><g fill="#ef3044" fill-opacity="1"><g transform="translate(255.636504, 200.664025)"><g><path d="M 1.515625 -26.59375 L 5.703125 -26.59375 L 5.703125 0 L 1.515625 0 Z M 1.515625 -26.59375 "/></g></g></g><g fill="#ef3044" fill-opacity="1"><g transform="translate(267.795027, 200.664025)"><g><path d="M 13.109375 -26.59375 L 13.109375 -22.875 L 5.171875 -3.796875 L 13.109375 -3.796875 L 13.109375 0 L 0.875 0 L 0.875 -3.71875 L 8.8125 -22.796875 L 1.25 -22.796875 L 1.25 -26.59375 Z M 13.109375 -26.59375 "/></g></g></g><g fill="#ef3044" fill-opacity="1"><g transform="translate(286.792161, 200.664025)"><g><path d="M 13.109375 -26.59375 L 13.109375 -22.875 L 5.171875 -3.796875 L 13.109375 -3.796875 L 13.109375 0 L 0.875 0 L 0.875 -3.71875 L 8.8125 -22.796875 L 1.25 -22.796875 L 1.25 -26.59375 Z M 13.109375 -26.59375 "/></g></g></g><g fill="#ef3044" fill-opacity="1"><g transform="translate(305.789295, 200.664025)"><g><path d="M 15.046875 0 L 10.828125 0 L 10.109375 -4.828125 L 4.984375 -4.828125 L 4.25 0 L 0.421875 0 L 4.671875 -26.59375 L 10.796875 -26.59375 Z M 5.515625 -8.4375 L 9.53125 -8.4375 L 7.53125 -21.890625 Z M 5.515625 -8.4375 "/></g></g></g><path stroke-linecap="butt" transform="matrix(1.494484, 0, 0, 1.5, 53.832356, 217.332876)" fill="none" stroke-linejoin="miter" d="M -0.00021741 -0.000563252 L 63.736776 -0.000563252 " stroke="#3e75a3" stroke-width="1" stroke-opacity="1" stroke-miterlimit="4"/><path stroke-linecap="butt" transform="matrix(1.494484, 0, 0, 1.5, 53.832356, 164.057464)" fill="none" stroke-linejoin="miter" d="M -0.00021741 0.000753415 L 63.736776 0.000753415 " stroke="#3e75a3" stroke-width="1" stroke-opacity="1" stroke-miterlimit="4"/><path stroke-linecap="butt" transform="matrix(1.494484, 0, 0, 1.5, 225.561201, 217.332876)" fill="none" stroke-linejoin="miter" d="M 0.000869271 -0.000563252 L 63.737862 -0.000563252 " stroke="#3e75a3" stroke-width="1" stroke-opacity="1" stroke-miterlimit="4"/><path stroke-linecap="butt" transform="matrix(1.494484, 0, 0, 1.5, 225.561201, 164.057464)" fill="none" stroke-linejoin="miter" d="M 0.000869271 0.000753415 L 63.737862 0.000753415 " stroke="#3e75a3" stroke-width="1" stroke-opacity="1" stroke-miterlimit="4"/><g fill="#3e75a3" fill-opacity="1"><g transform="translate(150.103964, 157.395599)"><g><path d="M -6.625 -9.453125 L -4.375 -11.234375 C -3.65625 -11.796875 -2.972656 -12.023438 -2.328125 -11.921875 C -1.679688 -11.828125 -1.066406 -11.410156 -0.484375 -10.671875 L 3.125 -6.109375 C 3.695312 -5.367188 3.957031 -4.671875 3.90625 -4.015625 C 3.863281 -3.359375 3.484375 -2.75 2.765625 -2.1875 L 0.515625 -0.40625 Z M -4.1875 -9.296875 L 0.921875 -2.8125 L 1.734375 -3.453125 C 1.953125 -3.628906 2.070312 -3.832031 2.09375 -4.0625 C 2.125 -4.300781 2.007812 -4.582031 1.75 -4.90625 L -1.96875 -9.609375 C -2.21875 -9.941406 -2.457031 -10.125 -2.6875 -10.15625 C -2.925781 -10.1875 -3.15625 -10.113281 -3.375 -9.9375 Z M -4.1875 -9.296875 "/></g></g></g><g fill="#3e75a3" fill-opacity="1"><g transform="translate(158.583977, 151.183375)"><g><path d="M -0.921875 -7.0625 L 1.28125 -8.21875 L 2.046875 -6.765625 L -0.15625 -5.609375 L 1.421875 -2.609375 L 4.203125 -4.0625 L 4.96875 -2.609375 L 0.578125 -0.3125 L -4.796875 -10.515625 L -0.40625 -12.8125 L 0.359375 -11.359375 L -2.421875 -9.90625 Z M -0.921875 -7.0625 "/></g></g></g><g fill="#3e75a3" fill-opacity="1"><g transform="translate(167.487787, 146.886817)"><g><path d="M -2.90625 -11.1875 L -1.1875 -11.734375 L 1.84375 -2.3125 L 4.6875 -3.234375 L 5.1875 -1.671875 L 0.625 -0.203125 Z M -2.90625 -11.1875 "/></g></g></g><g fill="#3e75a3" fill-opacity="1"><g transform="translate(176.665234, 144.336322)"><g><path d="M -1.21875 -11.484375 L 0.578125 -11.78125 L 2.4375 -0.40625 L 0.640625 -0.109375 Z M -1.21875 -11.484375 "/></g></g></g><g fill="#3e75a3" fill-opacity="1"><g transform="translate(183.625296, 143.375084)"><g><path d="M 5.890625 -4.34375 L 5.90625 -2.8125 C 5.90625 -1.882812 5.675781 -1.164062 5.21875 -0.65625 C 4.769531 -0.15625 4.101562 0.0976562 3.21875 0.109375 C 2.320312 0.109375 1.644531 -0.132812 1.1875 -0.625 C 0.726562 -1.125 0.5 -1.835938 0.5 -2.765625 L 0.453125 -8.765625 C 0.441406 -9.703125 0.660156 -10.421875 1.109375 -10.921875 C 1.566406 -11.429688 2.242188 -11.6875 3.140625 -11.6875 C 4.023438 -11.695312 4.695312 -11.453125 5.15625 -10.953125 C 5.613281 -10.460938 5.847656 -9.75 5.859375 -8.8125 L 5.875 -7.703125 L 4.15625 -7.6875 L 4.140625 -8.921875 C 4.140625 -9.335938 4.050781 -9.628906 3.875 -9.796875 C 3.695312 -9.960938 3.46875 -10.039062 3.1875 -10.03125 C 2.894531 -10.03125 2.664062 -9.945312 2.5 -9.78125 C 2.34375 -9.613281 2.265625 -9.320312 2.265625 -8.90625 L 2.3125 -2.671875 C 2.3125 -2.253906 2.394531 -1.960938 2.5625 -1.796875 C 2.726562 -1.628906 2.957031 -1.546875 3.25 -1.546875 C 3.53125 -1.554688 3.753906 -1.644531 3.921875 -1.8125 C 4.097656 -1.976562 4.1875 -2.269531 4.1875 -2.6875 L 4.171875 -4.328125 Z M 5.890625 -4.34375 "/></g></g></g><g fill="#3e75a3" fill-opacity="1"><g transform="translate(193.861977, 143.728675)"><g><path d="M 2.359375 -11.3125 L 4.140625 -11.046875 L 2.4375 0.359375 L 0.65625 0.09375 Z M 2.359375 -11.3125 "/></g></g></g><g fill="#3e75a3" fill-opacity="1"><g transform="translate(200.779249, 144.935454)"><g><path d="M 3.015625 -1.828125 C 2.890625 -1.429688 2.878906 -1.128906 2.984375 -0.921875 C 3.097656 -0.710938 3.289062 -0.5625 3.5625 -0.46875 C 3.832031 -0.382812 4.078125 -0.394531 4.296875 -0.5 C 4.515625 -0.613281 4.6875 -0.867188 4.8125 -1.265625 L 6.6875 -7.21875 C 6.8125 -7.613281 6.8125 -7.914062 6.6875 -8.125 C 6.570312 -8.332031 6.378906 -8.476562 6.109375 -8.5625 C 5.835938 -8.65625 5.597656 -8.644531 5.390625 -8.53125 C 5.179688 -8.425781 5.015625 -8.175781 4.890625 -7.78125 Z M 3.109375 -8.203125 C 3.390625 -9.097656 3.828125 -9.710938 4.421875 -10.046875 C 5.023438 -10.390625 5.753906 -10.425781 6.609375 -10.15625 C 7.453125 -9.894531 8.023438 -9.453125 8.328125 -8.828125 C 8.628906 -8.203125 8.640625 -7.441406 8.359375 -6.546875 L 6.5625 -0.828125 C 6.28125 0.0546875 5.835938 0.664062 5.234375 1 C 4.640625 1.332031 3.921875 1.367188 3.078125 1.109375 C 2.222656 0.835938 1.644531 0.394531 1.34375 -0.21875 C 1.039062 -0.84375 1.03125 -1.597656 1.3125 -2.484375 Z M 3.109375 -8.203125 "/></g></g></g><g fill="#3e75a3" fill-opacity="1"><g transform="translate(210.501485, 148.360404)"><g><path d="M 7.546875 -9.046875 L 3.359375 -1.203125 C 3.160156 -0.835938 3.097656 -0.539062 3.171875 -0.3125 C 3.242188 -0.0820312 3.40625 0.09375 3.65625 0.21875 C 3.914062 0.363281 4.15625 0.398438 4.375 0.328125 C 4.601562 0.265625 4.816406 0.0507812 5.015625 -0.3125 L 9.203125 -8.15625 L 10.71875 -7.359375 L 6.578125 0.390625 C 6.140625 1.203125 5.597656 1.722656 4.953125 1.953125 C 4.316406 2.179688 3.609375 2.085938 2.828125 1.671875 C 2.035156 1.242188 1.554688 0.703125 1.390625 0.046875 C 1.234375 -0.609375 1.375 -1.34375 1.8125 -2.15625 L 5.953125 -9.90625 Z M 7.546875 -9.046875 "/></g></g></g><g fill="#3e75a3" fill-opacity="1"><g transform="translate(219.454354, 153.55429)"><g><path d="M 5.796875 -6.59375 C 6.378906 -7.320312 7 -7.742188 7.65625 -7.859375 C 8.320312 -7.972656 9.003906 -7.753906 9.703125 -7.203125 C 10.398438 -6.640625 10.765625 -6.023438 10.796875 -5.359375 C 10.835938 -4.691406 10.566406 -3.992188 9.984375 -3.265625 L 9.703125 -2.921875 L 8.359375 -3.984375 L 8.71875 -4.421875 C 8.976562 -4.742188 9.097656 -5.019531 9.078125 -5.25 C 9.054688 -5.476562 8.9375 -5.679688 8.71875 -5.859375 C 8.488281 -6.046875 8.257812 -6.125 8.03125 -6.09375 C 7.800781 -6.0625 7.554688 -5.882812 7.296875 -5.5625 C 7.046875 -5.25 6.894531 -4.921875 6.84375 -4.578125 C 6.789062 -4.234375 6.78125 -3.867188 6.8125 -3.484375 C 6.851562 -3.109375 6.910156 -2.722656 6.984375 -2.328125 C 7.054688 -1.929688 7.097656 -1.523438 7.109375 -1.109375 C 7.117188 -0.691406 7.0625 -0.269531 6.9375 0.15625 C 6.8125 0.582031 6.578125 1.015625 6.234375 1.453125 C 5.660156 2.171875 5.039062 2.582031 4.375 2.6875 C 3.707031 2.789062 3.023438 2.566406 2.328125 2.015625 C 1.640625 1.460938 1.269531 0.847656 1.21875 0.171875 C 1.175781 -0.503906 1.441406 -1.203125 2.015625 -1.921875 L 2.515625 -2.546875 L 3.859375 -1.46875 L 3.296875 -0.765625 C 3.035156 -0.441406 2.921875 -0.164062 2.953125 0.0625 C 2.984375 0.300781 3.109375 0.507812 3.328125 0.6875 C 3.554688 0.863281 3.785156 0.9375 4.015625 0.90625 C 4.253906 0.882812 4.503906 0.710938 4.765625 0.390625 C 5.015625 0.078125 5.160156 -0.25 5.203125 -0.59375 C 5.253906 -0.9375 5.257812 -1.296875 5.21875 -1.671875 C 5.1875 -2.046875 5.132812 -2.429688 5.0625 -2.828125 C 5 -3.222656 4.960938 -3.625 4.953125 -4.03125 C 4.941406 -4.445312 4.992188 -4.867188 5.109375 -5.296875 C 5.222656 -5.734375 5.453125 -6.164062 5.796875 -6.59375 Z M 5.796875 -6.59375 "/></g></g></g><g fill="#3e75a3" fill-opacity="1"><g transform="translate(147.633324, 240.914017)"><g><path d="M 0.34375 -7.171875 C 0.34375 -7.929688 0.523438 -8.515625 0.890625 -8.921875 C 1.253906 -9.335938 1.800781 -9.546875 2.53125 -9.546875 C 3.257812 -9.546875 3.804688 -9.335938 4.171875 -8.921875 C 4.535156 -8.515625 4.71875 -7.929688 4.71875 -7.171875 L 4.71875 -6.8125 L 3.3125 -6.8125 L 3.3125 -7.265625 C 3.3125 -7.609375 3.242188 -7.847656 3.109375 -7.984375 C 2.984375 -8.128906 2.804688 -8.203125 2.578125 -8.203125 C 2.335938 -8.203125 2.148438 -8.128906 2.015625 -7.984375 C 1.890625 -7.847656 1.828125 -7.609375 1.828125 -7.265625 C 1.828125 -6.941406 1.898438 -6.65625 2.046875 -6.40625 C 2.191406 -6.164062 2.367188 -5.929688 2.578125 -5.703125 C 2.796875 -5.484375 3.03125 -5.265625 3.28125 -5.046875 C 3.53125 -4.828125 3.757812 -4.585938 3.96875 -4.328125 C 4.1875 -4.066406 4.367188 -3.769531 4.515625 -3.4375 C 4.660156 -3.101562 4.734375 -2.710938 4.734375 -2.265625 C 4.734375 -1.503906 4.546875 -0.914062 4.171875 -0.5 C 3.796875 -0.09375 3.242188 0.109375 2.515625 0.109375 C 1.785156 0.109375 1.234375 -0.09375 0.859375 -0.5 C 0.492188 -0.914062 0.3125 -1.503906 0.3125 -2.265625 L 0.3125 -2.90625 L 1.71875 -2.90625 L 1.71875 -2.171875 C 1.71875 -1.828125 1.785156 -1.585938 1.921875 -1.453125 C 2.054688 -1.316406 2.242188 -1.25 2.484375 -1.25 C 2.710938 -1.25 2.894531 -1.316406 3.03125 -1.453125 C 3.175781 -1.585938 3.25 -1.828125 3.25 -2.171875 C 3.25 -2.492188 3.175781 -2.773438 3.03125 -3.015625 C 2.882812 -3.265625 2.703125 -3.5 2.484375 -3.71875 C 2.273438 -3.945312 2.046875 -4.171875 1.796875 -4.390625 C 1.546875 -4.609375 1.3125 -4.847656 1.09375 -5.109375 C 0.882812 -5.367188 0.707031 -5.664062 0.5625 -6 C 0.414062 -6.332031 0.34375 -6.722656 0.34375 -7.171875 Z M 0.34375 -7.171875 "/></g></g></g><g fill="#3e75a3" fill-opacity="1"><g transform="translate(156.314541, 240.914017)"><g><path d="M 0.546875 -9.4375 L 2.015625 -9.4375 L 2.015625 0 L 0.546875 0 Z M 0.546875 -9.4375 "/></g></g></g><g fill="#3e75a3" fill-opacity="1"><g transform="translate(162.516087, 240.914017)"><g><path d="M 1.859375 -6.84375 L 1.859375 0 L 0.53125 0 L 0.53125 -9.4375 L 2.390625 -9.4375 L 3.90625 -3.796875 L 3.90625 -9.4375 L 5.234375 -9.4375 L 5.234375 0 L 3.703125 0 Z M 1.859375 -6.84375 "/></g></g></g><g fill="#3e75a3" fill-opacity="1"><g transform="translate(171.911563, 240.914017)"><g><path d="M 4.84375 -3.515625 L 4.84375 -2.265625 C 4.84375 -1.503906 4.65625 -0.914062 4.28125 -0.5 C 3.90625 -0.09375 3.351562 0.109375 2.625 0.109375 C 1.894531 0.109375 1.34375 -0.09375 0.96875 -0.5 C 0.601562 -0.914062 0.421875 -1.503906 0.421875 -2.265625 L 0.421875 -7.171875 C 0.421875 -7.929688 0.601562 -8.515625 0.96875 -8.921875 C 1.34375 -9.335938 1.894531 -9.546875 2.625 -9.546875 C 3.351562 -9.546875 3.90625 -9.335938 4.28125 -8.921875 C 4.65625 -8.515625 4.84375 -7.929688 4.84375 -7.171875 L 4.84375 -6.25 L 3.4375 -6.25 L 3.4375 -7.265625 C 3.4375 -7.609375 3.363281 -7.847656 3.21875 -7.984375 C 3.082031 -8.128906 2.898438 -8.203125 2.671875 -8.203125 C 2.429688 -8.203125 2.242188 -8.128906 2.109375 -7.984375 C 1.972656 -7.847656 1.90625 -7.609375 1.90625 -7.265625 L 1.90625 -2.171875 C 1.90625 -1.828125 1.972656 -1.585938 2.109375 -1.453125 C 2.242188 -1.316406 2.429688 -1.25 2.671875 -1.25 C 2.898438 -1.25 3.082031 -1.316406 3.21875 -1.453125 C 3.363281 -1.585938 3.4375 -1.828125 3.4375 -2.171875 L 3.4375 -3.515625 Z M 4.84375 -3.515625 "/></g></g></g><g fill="#3e75a3" fill-opacity="1"><g transform="translate(180.754498, 240.914017)"><g><path d="M 2.015625 -5.46875 L 4.0625 -5.46875 L 4.0625 -4.109375 L 2.015625 -4.109375 L 2.015625 -1.34375 L 4.578125 -1.34375 L 4.578125 0 L 0.546875 0 L 0.546875 -9.4375 L 4.578125 -9.4375 L 4.578125 -8.09375 L 2.015625 -8.09375 Z M 2.015625 -5.46875 "/></g></g></g><g fill="#3e75a3" fill-opacity="1"><g transform="translate(189.354864, 240.914017)"><g/></g></g><g fill="#3e75a3" fill-opacity="1"><g transform="translate(195.084732, 240.914017)"><g><path d="M 3.484375 -7.125 C 3.484375 -7.539062 3.410156 -7.820312 3.265625 -7.96875 C 3.128906 -8.125 2.941406 -8.203125 2.703125 -8.203125 C 2.472656 -8.203125 2.285156 -8.128906 2.140625 -7.984375 C 2.003906 -7.847656 1.9375 -7.609375 1.9375 -7.265625 L 1.9375 -6.25 L 0.546875 -6.25 L 0.546875 -7.171875 C 0.546875 -7.929688 0.726562 -8.515625 1.09375 -8.921875 C 1.46875 -9.335938 2.019531 -9.546875 2.75 -9.546875 C 3.476562 -9.546875 4.03125 -9.335938 4.40625 -8.921875 C 4.78125 -8.515625 4.96875 -7.929688 4.96875 -7.171875 C 4.96875 -6.660156 4.882812 -6.195312 4.71875 -5.78125 C 4.5625 -5.375 4.367188 -5 4.140625 -4.65625 C 3.910156 -4.3125 3.660156 -4 3.390625 -3.71875 C 3.117188 -3.4375 2.875 -3.164062 2.65625 -2.90625 C 2.4375 -2.644531 2.265625 -2.390625 2.140625 -2.140625 C 2.015625 -1.890625 1.972656 -1.625 2.015625 -1.34375 L 4.828125 -1.34375 L 4.828125 0 L 0.546875 0 L 0.546875 -1.15625 C 0.546875 -1.613281 0.613281 -2.019531 0.75 -2.375 C 0.894531 -2.726562 1.078125 -3.050781 1.296875 -3.34375 C 1.515625 -3.632812 1.75 -3.90625 2 -4.15625 C 2.257812 -4.414062 2.5 -4.6875 2.71875 -4.96875 C 2.9375 -5.257812 3.117188 -5.578125 3.265625 -5.921875 C 3.410156 -6.265625 3.484375 -6.664062 3.484375 -7.125 Z M 3.484375 -7.125 "/></g></g></g><g fill="#3e75a3" fill-opacity="1"><g transform="translate(204.062432, 240.914017)"><g><path d="M 1.90625 -2.171875 C 1.90625 -1.828125 1.972656 -1.582031 2.109375 -1.4375 C 2.242188 -1.300781 2.429688 -1.234375 2.671875 -1.234375 C 2.898438 -1.234375 3.082031 -1.300781 3.21875 -1.4375 C 3.363281 -1.582031 3.4375 -1.828125 3.4375 -2.171875 L 3.4375 -7.265625 C 3.4375 -7.609375 3.363281 -7.847656 3.21875 -7.984375 C 3.082031 -8.128906 2.898438 -8.203125 2.671875 -8.203125 C 2.429688 -8.203125 2.242188 -8.128906 2.109375 -7.984375 C 1.972656 -7.847656 1.90625 -7.609375 1.90625 -7.265625 Z M 0.421875 -7.171875 C 0.421875 -7.929688 0.613281 -8.515625 1 -8.921875 C 1.382812 -9.335938 1.941406 -9.546875 2.671875 -9.546875 C 3.398438 -9.546875 3.957031 -9.335938 4.34375 -8.921875 C 4.726562 -8.515625 4.921875 -7.929688 4.921875 -7.171875 L 4.921875 -2.265625 C 4.921875 -1.503906 4.726562 -0.914062 4.34375 -0.5 C 3.957031 -0.09375 3.398438 0.109375 2.671875 0.109375 C 1.941406 0.109375 1.382812 -0.09375 1 -0.5 C 0.613281 -0.914062 0.421875 -1.503906 0.421875 -2.265625 Z M 0.421875 -7.171875 "/></g></g></g><g fill="#3e75a3" fill-opacity="1"><g transform="translate(213.040133, 240.914017)"><g><path d="M 3.484375 -7.125 C 3.484375 -7.539062 3.410156 -7.820312 3.265625 -7.96875 C 3.128906 -8.125 2.941406 -8.203125 2.703125 -8.203125 C 2.472656 -8.203125 2.285156 -8.128906 2.140625 -7.984375 C 2.003906 -7.847656 1.9375 -7.609375 1.9375 -7.265625 L 1.9375 -6.25 L 0.546875 -6.25 L 0.546875 -7.171875 C 0.546875 -7.929688 0.726562 -8.515625 1.09375 -8.921875 C 1.46875 -9.335938 2.019531 -9.546875 2.75 -9.546875 C 3.476562 -9.546875 4.03125 -9.335938 4.40625 -8.921875 C 4.78125 -8.515625 4.96875 -7.929688 4.96875 -7.171875 C 4.96875 -6.660156 4.882812 -6.195312 4.71875 -5.78125 C 4.5625 -5.375 4.367188 -5 4.140625 -4.65625 C 3.910156 -4.3125 3.660156 -4 3.390625 -3.71875 C 3.117188 -3.4375 2.875 -3.164062 2.65625 -2.90625 C 2.4375 -2.644531 2.265625 -2.390625 2.140625 -2.140625 C 2.015625 -1.890625 1.972656 -1.625 2.015625 -1.34375 L 4.828125 -1.34375 L 4.828125 0 L 0.546875 0 L 0.546875 -1.15625 C 0.546875 -1.613281 0.613281 -2.019531 0.75 -2.375 C 0.894531 -2.726562 1.078125 -3.050781 1.296875 -3.34375 C 1.515625 -3.632812 1.75 -3.90625 2 -4.15625 C 2.257812 -4.414062 2.5 -4.6875 2.71875 -4.96875 C 2.9375 -5.257812 3.117188 -5.578125 3.265625 -5.921875 C 3.410156 -6.265625 3.484375 -6.664062 3.484375 -7.125 Z M 3.484375 -7.125 "/></g></g></g><g fill="#3e75a3" fill-opacity="1"><g transform="translate(222.017833, 240.914017)"><g><path d="M 3.484375 -7.125 C 3.484375 -7.539062 3.410156 -7.820312 3.265625 -7.96875 C 3.128906 -8.125 2.941406 -8.203125 2.703125 -8.203125 C 2.472656 -8.203125 2.285156 -8.128906 2.140625 -7.984375 C 2.003906 -7.847656 1.9375 -7.609375 1.9375 -7.265625 L 1.9375 -6.25 L 0.546875 -6.25 L 0.546875 -7.171875 C 0.546875 -7.929688 0.726562 -8.515625 1.09375 -8.921875 C 1.46875 -9.335938 2.019531 -9.546875 2.75 -9.546875 C 3.476562 -9.546875 4.03125 -9.335938 4.40625 -8.921875 C 4.78125 -8.515625 4.96875 -7.929688 4.96875 -7.171875 C 4.96875 -6.660156 4.882812 -6.195312 4.71875 -5.78125 C 4.5625 -5.375 4.367188 -5 4.140625 -4.65625 C 3.910156 -4.3125 3.660156 -4 3.390625 -3.71875 C 3.117188 -3.4375 2.875 -3.164062 2.65625 -2.90625 C 2.4375 -2.644531 2.265625 -2.390625 2.140625 -2.140625 C 2.015625 -1.890625 1.972656 -1.625 2.015625 -1.34375 L 4.828125 -1.34375 L 4.828125 0 L 0.546875 0 L 0.546875 -1.15625 C 0.546875 -1.613281 0.613281 -2.019531 0.75 -2.375 C 0.894531 -2.726562 1.078125 -3.050781 1.296875 -3.34375 C 1.515625 -3.632812 1.75 -3.90625 2 -4.15625 C 2.257812 -4.414062 2.5 -4.6875 2.71875 -4.96875 C 2.9375 -5.257812 3.117188 -5.578125 3.265625 -5.921875 C 3.410156 -6.265625 3.484375 -6.664062 3.484375 -7.125 Z M 3.484375 -7.125 "/></g></g></g></svg>